Monda-Bold.ufo
<glyph name="exclam" format="1">
  <advance width="743"/>
  <unicode hex="0021"/>
  <outline>
    <contour>
      <point x="228" y="0" type="line"/>
      <point x="497" y="0" type="line"/>
      <point x="497" y="262" type="line"/>
      <point x="228" y="262" type="line"/>
    </contour>
    <contour>
      <point x="323" y="427" type="line"/>
      <point x="406" y="427" type="line"/>
      <point x="515" y="1490" type="line"/>
      <point x="233" y="1490" type="line"/>
    </contour>
  </outline>
</glyph>
<glyph name="quotedbl" format="1">
  <advance width="926"/>
  <unicode hex="0022"/>
  <outline>
    <contour>
      <point x="223" y="846" type="line"/>
      <point x="345" y="846" type="line"/>
      <point x="404" y="1520" type="line"/>
      <point x="128" y="1520" type="line"/>
    </contour>
    <contour>
      <point x="586" y="846" type="line"/>
      <point x="708" y="846" type="line"/>
      <point x="798" y="1520" type="line"/>
      <point x="522" y="1520" type="line"/>
    </contour>
  </outline>
</glyph>
<glyph name="ampersand" format="1">
  <advance width="1528"/>
  <unicode hex="0026"/>
  <outline>
    <contour>
      <point x="734" y="-28" type="curve" smooth="yes"/>
      <point x="987" y="-28"/>
      <point x="1105" y="12"/>
      <point x="1180" y="98" type="curve"/>
      <point x="1302" y="-25" type="line"/>
      <point x="1486" y="175" type="line"/>
      <point x="1321" y="331" type="line"/>
      <point x="1339" y="382"/>
      <point x="1350" y="483"/>
      <point x="1350" y="570" type="curve" smooth="yes"/>
      <point x="1350" y="841" type="line"/>
      <point x="1088" y="841" type="line"/>
      <point x="1088" y="565" type="line" smooth="yes"/>
      <point x="1088" y="549"/>
      <point x="1088" y="554"/>
      <point x="1087" y="540" type="curve"/>
      <point x="658" y="970" type="line"/>
      <point x="567" y="1065"/>
      <point x="544" y="1081"/>
      <point x="544" y="1159" type="curve" smooth="yes"/>
      <point x="544" y="1245"/>
      <point x="577" y="1294"/>
      <point x="777" y="1294" type="curve" smooth="yes"/>
      <point x="965" y="1294"/>
      <point x="1012" y="1285"/>
      <point x="1012" y="1147" type="curve" smooth="yes"/>
      <point x="1012" y="1113" type="line"/>
      <point x="1282" y="1113" type="line"/>
      <point x="1282" y="1188" type="line" smooth="yes"/>
      <point x="1282" y="1424"/>
      <point x="1150" y="1516"/>
      <point x="773" y="1516" type="curve" smooth="yes"/>
      <point x="399" y="1516"/>
      <point x="248" y="1426"/>
      <point x="248" y="1175" type="curve" smooth="yes"/>
      <point x="248" y="1021"/>
      <point x="318" y="926"/>
      <point x="423" y="829" type="curve"/>
      <point x="228" y="771"/>
      <point x="130" y="670"/>
      <point x="130" y="469" type="curve" smooth="yes"/>
      <point x="130" y="68"/>
      <point x="291" y="-28"/>
    </contour>
    <contour>
      <point x="734" y="226" type="curve" smooth="yes"/>
      <point x="478" y="226"/>
      <point x="432" y="269"/>
      <point x="432" y="475" type="curve" smooth="yes"/>
      <point x="432" y="597"/>
      <point x="433" y="663"/>
      <point x="562" y="696" type="curve"/>
      <point x="957" y="300" type="line"/>
      <point x="927" y="226"/>
      <point x="810" y="226"/>
    </contour>
  </outline>
</glyph>
<glyph name="quotesingle" format="1">
  <advance width="536"/>
  <unicode hex="0027"/>
  <outline>
    <contour>
      <point x="176" y="846" type="line"/>
      <point x="360" y="846" type="line"/>
      <point x="408" y="1520" type="line"/>
      <point x="128" y="1520" type="line"/>
    </contour>
  </outline>
</glyph>
<glyph name="parenleft" format="1">
  <advance width="1024"/>
  <unicode hex="0028"/>
  <outline>
    <contour>
      <point x="818" y="-163" type="curve"/>
      <point x="818" y="81" type="line"/>
      <point x="641" y="81"/>
      <point x="517" y="107"/>
      <point x="517" y="382" type="curve" smooth="yes"/>
      <point x="517" y="1031" type="line" smooth="yes"/>
      <point x="517" y="1307"/>
      <point x="644" y="1334"/>
      <point x="818" y="1334" type="curve"/>
      <point x="818" y="1578" type="line"/>
      <point x="394" y="1580"/>
      <point x="200" y="1376"/>
      <point x="200" y="998" type="curve" smooth="yes"/>
      <point x="200" y="411" type="line" smooth="yes"/>
      <point x="200" y="35"/>
      <point x="396" y="-165"/>
    </contour>
  </outline>
</glyph>
<glyph name="one" format="1">
  <advance width="1536"/>
  <unicode hex="0031"/>
  <outline>
    <contour>
      <point x="224" y="0" type="line"/>
      <point x="1398" y="0" type="line"/>
      <point x="1398" y="233" type="line"/>
      <point x="1008" y="233" type="line"/>
      <point x="1008" y="1490" type="line"/>
      <point x="786" y="1490" type="line"/>
      <point x="214" y="1408" type="line"/>
      <point x="243" y="1165" type="line"/>
      <point x="669" y="1225" type="line"/>
      <point x="669" y="233" type="line"/>
      <point x="224" y="233" type="line"/>
    </contour>
  </outline>
</glyph>
<glyph name="five" format="1">
  <advance width="1536"/>
  <unicode hex="0035"/>
  <outline>
    <contour>
      <point x="792" y="-29" type="curve" smooth="yes"/>
      <point x="1157" y="-29"/>
      <point x="1328" y="216"/>
      <point x="1328" y="490" type="curve" smooth="yes"/>
      <point x="1328" y="723"/>
      <point x="1208" y="982"/>
      <point x="882" y="982" type="curve" smooth="yes"/>
      <point x="784" y="982"/>
      <point x="657" y="951"/>
      <point x="592" y="893" type="curve"/>
      <point x="635" y="1207" type="line"/>
      <point x="1230" y="1207" type="line"/>
      <point x="1230" y="1490" type="line"/>
      <point x="376" y="1490" type="line"/>
      <point x="320" y="700" type="line"/>
      <point x="564" y="630" type="line"/>
      <point x="590" y="679"/>
      <point x="687" y="746"/>
      <point x="796" y="746" type="curve" smooth="yes"/>
      <point x="988" y="746"/>
      <point x="1047" y="614"/>
      <point x="1047" y="494" type="curve" smooth="yes"/>
      <point x="1047" y="320"/>
      <point x="944" y="218"/>
      <point x="772" y="218" type="curve" smooth="yes"/>
      <point x="662" y="218"/>
      <point x="525" y="259"/>
      <point x="369" y="349" type="curve"/>
      <point x="286" y="124" type="line"/>
      <point x="362" y="62"/>
      <point x="563" y="-29"/>
    </contour>
  </outline>
</glyph>
<glyph name="colon" format="1">
  <advance width="428"/>
  <unicode hex="003A"/>
  <outline>
    <contour>
      <point x="82" y="125" type="line"/>
      <point x="348" y="125" type="line"/>
      <point x="348" y="386" type="line"/>
      <point x="82" y="386" type="line"/>
    </contour>
    <contour>
      <point x="82" y="742" type="line"/>
      <point x="348" y="742" type="line"/>
      <point x="348" y="1004" type="line"/>
      <point x="82" y="1004" type="line"/>
    </contour>
  </outline>
</glyph>
<glyph name="question" format="1">
  <advance width="1244"/>
  <unicode hex="003F"/>
  <outline>
    <contour>
      <point x="421" y="431" type="line"/>
      <point x="681" y="431" type="line"/>
      <point x="851" y="610" type="line" smooth="yes"/>
      <point x="1017" y="785"/>
      <point x="1150" y="903"/>
      <point x="1150" y="1117" type="curve" smooth="yes"/>
      <point x="1150" y="1366"/>
      <point x="1040" y="1516"/>
      <point x="601" y="1516" type="curve" smooth="yes"/>
      <point x="156" y="1516"/>
      <point x="58" y="1359"/>
      <point x="58" y="1056" type="curve" smooth="yes"/>
      <point x="58" y="962" type="line"/>
      <point x="410" y="962" type="line"/>
      <point x="410" y="1034" type="line" smooth="yes"/>
      <point x="410" y="1179"/>
      <point x="430" y="1267"/>
      <point x="601" y="1267" type="curve" smooth="yes"/>
      <point x="743" y="1267"/>
      <point x="787" y="1213"/>
      <point x="787" y="1093" type="curve" smooth="yes"/>
      <point x="787" y="971"/>
      <point x="747" y="904"/>
      <point x="658" y="774" type="curve" smooth="yes"/>
    </contour>
    <contour>
      <point x="410" y="0" type="line"/>
      <point x="679" y="0" type="line"/>
      <point x="679" y="262" type="line"/>
      <point x="410" y="262" type="line"/>
    </contour>
  </outline>
</glyph>
<glyph name="A" format="1">
  <advance width="1576"/>
  <unicode hex="0041"/>
  <outline>
    <contour>
      <point x="76" y="0" type="line"/>
      <point x="433" y="0" type="line"/>
      <point x="514" y="280" type="line"/>
      <point x="1056" y="280" type="line"/>
      <point x="1133" y="0" type="line"/>
      <point x="1500" y="0" type="line"/>
      <point x="1030" y="1490" type="line"/>
      <point x="540" y="1490" type="line"/>
    </contour>
    <contour>
      <point x="578" y="503" type="line"/>
      <point x="792" y="1244" type="line"/>
      <point x="995" y="503" type="line"/>
    </contour>
    <contour>
      <point x="788" y="0" type="move" name="top"/>
    </contour>
    <contour>
      <point x="1418" y="10" type="move" name="ogonek"/>
    </contour>
  </outline>
</glyph>
<glyph name="B" format="1">
  <advance width="1484.56125603"/>
  <unicode hex="0042"/>
  <outline>
    <contour>
      <point x="208" y="0" type="line"/>
      <point x="835" y="0" type="line" smooth="yes"/>
      <point x="1207" y="0"/>
      <point x="1357" y="145"/>
      <point x="1346" y="464" type="curve"/>
      <point x="1346" y="661"/>
      <point x="1317" y="794"/>
      <point x="1096" y="817" type="curve"/>
      <point x="1259" y="853"/>
      <point x="1303" y="945"/>
      <point x="1303" y="1105" type="curve" smooth="yes"/>
      <point x="1303" y="1376"/>
      <point x="1184" y="1490"/>
      <point x="765" y="1490" type="curve" smooth="yes"/>
      <point x="208" y="1490" type="line"/>
    </contour>
    <contour>
      <point x="547" y="234" type="line"/>
      <point x="547" y="706" type="line"/>
      <point x="784" y="706" type="line" smooth="yes"/>
      <point x="1006" y="706"/>
      <point x="1007" y="618"/>
      <point x="1007" y="465" type="curve" smooth="yes"/>
      <point x="1007" y="273"/>
      <point x="996" y="234"/>
      <point x="762" y="234" type="curve" smooth="yes"/>
    </contour>
    <contour>
      <point x="547" y="904" type="line"/>
      <point x="547" y="1264" type="line"/>
      <point x="752" y="1264" type="line" smooth="yes"/>
      <point x="934" y="1264"/>
      <point x="955" y="1233"/>
      <point x="955" y="1102" type="curve" smooth="yes"/>
      <point x="955" y="967"/>
      <point x="950" y="904"/>
      <point x="781" y="904" type="curve" smooth="yes"/>
    </contour>
  </outline>
</glyph>
<glyph name="D" format="1">
  <advance width="1588"/>
  <unicode hex="0044"/>
  <outline>
    <contour>
      <point x="547" y="266" type="line"/>
      <point x="547" y="1223" type="line"/>
      <point x="850" y="1223" type="line" smooth="yes"/>
      <point x="1057" y="1223"/>
      <point x="1071" y="1125"/>
      <point x="1071" y="1013" type="curve" smooth="yes"/>
      <point x="1071" y="473" type="line" smooth="yes"/>
      <point x="1071" y="355"/>
      <point x="1060" y="266"/>
      <point x="850" y="266" type="curve" smooth="yes"/>
    </contour>
    <contour>
      <point x="208" y="0" type="line"/>
      <point x="879" y="0" type="line" smooth="yes"/>
      <point x="1315" y="0"/>
      <point x="1410" y="232"/>
      <point x="1410" y="519" type="curve" smooth="yes"/>
      <point x="1410" y="962" type="line" smooth="yes"/>
      <point x="1410" y="1257"/>
      <point x="1318" y="1490"/>
      <point x="879" y="1490" type="curve" smooth="yes"/>
      <point x="208" y="1490" type="line"/>
    </contour>
    <contour>
      <point x="791" y="0" type="move" name="top"/>
    </contour>
    <contour>
      <point x="791" y="0" type="move" name="center"/>
    </contour>
  </outline>
</glyph>
<glyph name="E" format="1">
  <advance width="1334"/>
  <unicode hex="0045"/>
  <outline>
    <contour>
      <point x="208" y="0" type="line"/>
      <point x="1214" y="0" type="line"/>
      <point x="1214" y="261" type="line"/>
      <point x="547" y="261" type="line"/>
      <point x="547" y="636" type="line"/>
      <point x="1129" y="636" type="line"/>
      <point x="1129" y="877" type="line"/>
      <point x="547" y="877" type="line"/>
      <point x="547" y="1228" type="line"/>
      <point x="1203" y="1228" type="line"/>
      <point x="1203" y="1490" type="line"/>
      <point x="208" y="1490" type="line"/>
    </contour>
    <contour>
      <point x="675" y="0" type="move" name="top"/>
    </contour>
    <contour>
      <point x="675" y="0" type="move" name="bottom"/>
    </contour>
    <contour>
      <point x="1197" y="10" type="move" name="ogonek"/>
    </contour>
  </outline>
</glyph>
<glyph name="H" format="1">
  <advance width="1718"/>
  <unicode hex="0048"/>
  <outline>
    <contour>
      <point x="208" y="0" type="line"/>
      <point x="547" y="0" type="line"/>
      <point x="547" y="596" type="line"/>
      <point x="1172" y="596" type="line"/>
      <point x="1172" y="0" type="line"/>
      <point x="1510" y="0" type="line"/>
      <point x="1510" y="1490" type="line"/>
      <point x="1172" y="1490" type="line"/>
      <point x="1172" y="866" type="line"/>
      <point x="547" y="866" type="line"/>
      <point x="547" y="1490" type="line"/>
      <point x="208" y="1490" type="line"/>
    </contour>
    <contour>
      <point x="859" y="0" type="move" name="top"/>
    </contour>
    <contour>
      <point x="859" y="0" type="move" name="center"/>
    </contour>
  </outline>
</glyph>
<glyph name="I" format="1">
  <advance width="1190"/>
  <unicode hex="0049"/>
  <outline>
    <contour>
      <point x="162" y="0" type="line"/>
      <point x="1028" y="0" type="line"/>
      <point x="1028" y="254" type="line"/>
      <point x="765" y="254" type="line"/>
      <point x="765" y="1236" type="line"/>
      <point x="1028" y="1236" type="line"/>
      <point x="1028" y="1490" type="line"/>
      <point x="162" y="1490" type="line"/>
      <point x="162" y="1236" type="line"/>
      <point x="426" y="1236" type="line"/>
      <point x="426" y="254" type="line"/>
      <point x="162" y="254" type="line"/>
    </contour>
    <contour>
      <point x="596" y="0" type="move" name="top"/>
    </contour>
    <contour>
      <point x="1037" y="10" type="move" name="ogonek"/>
    </contour>
  </outline>
</glyph>
<glyph name="J" format="1">
  <advance width="1256"/>
  <unicode hex="004A"/>
  <outline>
    <contour>
      <point x="509" y="-28" type="curve" smooth="yes"/>
      <point x="842" y="-28"/>
      <point x="1070" y="130"/>
      <point x="1070" y="418" type="curve" smooth="yes"/>
      <point x="1070" y="1490" type="line"/>
      <point x="243" y="1490" type="line"/>
      <point x="243" y="1236" type="line"/>
      <point x="731" y="1236" type="line"/>
      <point x="731" y="443" type="line" smooth="yes"/>
      <point x="731" y="342"/>
      <point x="668" y="236"/>
      <point x="484" y="236" type="curve" smooth="yes"/>
      <point x="399" y="236"/>
      <point x="263" y="259"/>
      <point x="144" y="314" type="curve"/>
      <point x="69" y="66" type="line"/>
      <point x="227" y="-7"/>
      <point x="376" y="-28"/>
    </contour>
    <contour>
      <point x="620" y="0" type="move" name="top"/>
    </contour>
  </outline>
</glyph>
<glyph name="M" format="1">
  <advance width="1991"/>
  <unicode hex="004D"/>
  <outline>
    <contour>
      <point x="208" y="0" type="line"/>
      <point x="533" y="0" type="line"/>
      <point x="533" y="1074" type="line"/>
      <point x="885" y="416" type="line"/>
      <point x="1106" y="416" type="line"/>
      <point x="1458" y="1078" type="line"/>
      <point x="1458" y="0" type="line"/>
      <point x="1783" y="0" type="line"/>
      <point x="1781" y="1490" type="line"/>
      <point x="1347" y="1490" type="line"/>
      <point x="995" y="815" type="line"/>
      <point x="632" y="1490" type="line"/>
      <point x="208" y="1490" type="line"/>
    </contour>
  </outline>
</glyph>
<glyph name="Q" format="1">
  <advance width="1748"/>
  <unicode hex="0051"/>
  <outline>
    <contour>
      <point x="1014" y="-485" type="line"/>
      <point x="1224" y="-362" type="line"/>
      <point x="987" y="50" type="line"/>
      <point x="718" y="-10" type="line"/>
    </contour>
    <component base="O" xOffset="30"/>
  </outline>
</glyph>
<glyph name="X" format="1">
  <advance width="1382"/>
  <unicode hex="0058"/>
  <outline>
    <contour>
      <point x="24" y="0" type="line"/>
      <point x="377" y="0" type="line"/>
      <point x="682" y="472" type="line"/>
      <point x="984" y="0" type="line"/>
      <point x="1358" y="0" type="line"/>
      <point x="866" y="756" type="line"/>
      <point x="1340" y="1490" type="line"/>
      <point x="963" y="1490" type="line"/>
      <point x="680" y="1041" type="line"/>
      <point x="388" y="1490" type="line"/>
      <point x="32" y="1490" type="line"/>
      <point x="501" y="756" type="line"/>
    </contour>
  </outline>
</glyph>
<glyph name="e" format="1">
  <advance width="1238"/>
  <unicode hex="0065"/>
  <outline>
    <contour>
      <point x="625" y="-24" type="curve" smooth="yes"/>
      <point x="915" y="-24"/>
      <point x="1092" y="33"/>
      <point x="1092" y="369" type="curve"/>
      <point x="802" y="369" type="line"/>
      <point x="802" y="206"/>
      <point x="735" y="186"/>
      <point x="632" y="186" type="curve" smooth="yes"/>
      <point x="533" y="186"/>
      <point x="462" y="211"/>
      <point x="462" y="318" type="curve" smooth="yes"/>
      <point x="462" y="515" type="line"/>
      <point x="1092" y="515" type="line"/>
      <point x="1092" y="740" type="line" smooth="yes"/>
      <point x="1092" y="962"/>
      <point x="971" y="1104"/>
      <point x="623" y="1104" type="curve" smooth="yes"/>
      <point x="354" y="1104"/>
      <point x="152" y="987"/>
      <point x="152" y="760" type="curve" smooth="yes"/>
      <point x="152" y="319" type="line" smooth="yes"/>
      <point x="152" y="35"/>
      <point x="385" y="-24"/>
    </contour>
    <contour>
      <point x="462" y="664" type="line"/>
      <point x="462" y="760" type="line" smooth="yes"/>
      <point x="462" y="866"/>
      <point x="541" y="894"/>
      <point x="632" y="894" type="curve" smooth="yes"/>
      <point x="726" y="894"/>
      <point x="802" y="875"/>
      <point x="802" y="760" type="curve" smooth="yes"/>
      <point x="802" y="664" type="line"/>
    </contour>
    <contour>
      <point x="619" y="0" type="move" name="top"/>
    </contour>
    <contour>
      <point x="619" y="0" type="move" name="bottom"/>
    </contour>
    <contour>
      <point x="1114" y="10" type="move" name="ogonek"/>
    </contour>
  </outline>
</glyph>
<glyph name="f" format="1">
  <advance width="793"/>
  <unicode hex="0066"/>
  <outline>
    <contour>
      <point x="238" y="0" type="line"/>
      <point x="548" y="0" type="line"/>
      <point x="548" y="894" type="line"/>
      <point x="744" y="894" type="line"/>
      <point x="744" y="1080" type="line"/>
      <point x="548" y="1080" type="line"/>
      <point x="548" y="1182" type="line" smooth="yes"/>
      <point x="548" y="1253"/>
      <point x="562" y="1307"/>
      <point x="681" y="1307" type="curve" smooth="yes"/>
      <point x="760" y="1307" type="line"/>
      <point x="747" y="1520" type="line"/>
      <point x="618" y="1520" type="line" smooth="yes"/>
      <point x="346" y="1520"/>
      <point x="238" y="1363"/>
      <point x="238" y="1082" type="curve" smooth="yes"/>
      <point x="238" y="1080" type="line"/>
      <point x="111" y="1080" type="line"/>
      <point x="111" y="894" type="line"/>
      <point x="238" y="894" type="line"/>
    </contour>
  </outline>
</glyph>
<glyph name="k" format="1">
  <advance width="1241"/>
  <unicode hex="006B"/>
  <outline>
    <contour>
      <point x="165" y="0" type="line"/>
      <point x="475" y="0" type="line"/>
      <point x="475" y="398" type="line"/>
      <point x="549" y="476" type="line"/>
      <point x="846" y="0" type="line"/>
      <point x="1220" y="0" type="line"/>
      <point x="817" y="614" type="line"/>
      <point x="1208" y="1080" type="line"/>
      <point x="833" y="1080" type="line"/>
      <point x="475" y="642" type="line"/>
      <point x="475" y="1520" type="line"/>
      <point x="165" y="1520" type="line"/>
    </contour>
    <contour>
      <point x="621" y="0" type="move" name="bottom"/>
    </contour>
  </outline>
</glyph>
<glyph name="n" format="1">
  <advance width="1324"/>
  <unicode hex="006E"/>
  <outline>
    <contour>
      <point x="182" y="0" type="line"/>
      <point x="492" y="0" type="line"/>
      <point x="492" y="760" type="line" smooth="yes"/>
      <point x="492" y="865"/>
      <point x="614" y="894"/>
      <point x="675" y="894" type="curve" smooth="yes"/>
      <point x="739" y="894"/>
      <point x="848" y="879"/>
      <point x="848" y="763" type="curve" smooth="yes"/>
      <point x="848" y="0" type="line"/>
      <point x="1158" y="0" type="line"/>
      <point x="1158" y="804" type="line" smooth="yes"/>
      <point x="1158" y="991"/>
      <point x="1001" y="1104"/>
      <point x="819" y="1104" type="curve" smooth="yes"/>
      <point x="672" y="1104"/>
      <point x="530" y="1031"/>
      <point x="492" y="944" type="curve"/>
      <point x="492" y="1080" type="line"/>
      <point x="182" y="1080" type="line"/>
    </contour>
    <contour>
      <point x="663" y="0" type="move" name="top"/>
    </contour>
    <contour>
      <point x="663" y="0" type="move" name="bottom"/>
    </contour>
  </outline>
</glyph>
<glyph name="q" format="1">
  <advance width="1276"/>
  <unicode hex="0071"/>
  <outline>
    <contour>
      <point x="787" y="-411" type="line"/>
      <point x="1098" y="-411" type="line"/>
      <point x="1098" y="1080" type="line"/>
      <point x="887" y="1080" type="line"/>
      <point x="859" y="1018" type="line"/>
      <point x="784" y="1069"/>
      <point x="689" y="1104"/>
      <point x="576" y="1104" type="curve" smooth="yes"/>
      <point x="321" y="1104"/>
      <point x="152" y="968"/>
      <point x="152" y="760" type="curve" smooth="yes"/>
      <point x="152" y="318" type="line" smooth="yes"/>
      <point x="152" y="147"/>
      <point x="246" y="-24"/>
      <point x="561" y="-24" type="curve" smooth="yes"/>
      <point x="647" y="-24"/>
      <point x="722" y="-5"/>
      <point x="787" y="27" type="curve"/>
    </contour>
    <contour>
      <point x="629" y="186" type="curve" smooth="yes"/>
      <point x="516" y="186"/>
      <point x="462" y="219"/>
      <point x="462" y="318" type="curve" smooth="yes"/>
      <point x="462" y="760" type="line" smooth="yes"/>
      <point x="462" y="859"/>
      <point x="526" y="894"/>
      <point x="629" y="894" type="curve" smooth="yes"/>
      <point x="695" y="894"/>
      <point x="751" y="882"/>
      <point x="787" y="852" type="curve"/>
      <point x="787" y="228" type="line"/>
      <point x="787" y="228"/>
      <point x="732" y="186"/>
    </contour>
  </outline>
</glyph>
<glyph name="u" format="1">
  <advance width="1318"/>
  <unicode hex="0075"/>
  <outline>
    <contour>
      <point x="494" y="-24" type="curve" smooth="yes"/>
      <point x="641" y="-24"/>
      <point x="792" y="49"/>
      <point x="830" y="136" type="curve"/>
      <point x="830" y="0" type="line"/>
      <point x="1140" y="0" type="line"/>
      <point x="1140" y="1080" type="line"/>
      <point x="830" y="1080" type="line"/>
      <point x="830" y="320" type="line" smooth="yes"/>
      <point x="830" y="215"/>
      <point x="703" y="186"/>
      <point x="642" y="186" type="curve" smooth="yes"/>
      <point x="578" y="186"/>
      <point x="474" y="201"/>
      <point x="474" y="317" type="curve" smooth="yes"/>
      <point x="474" y="1080" type="line"/>
      <point x="164" y="1080" type="line"/>
      <point x="164" y="276" type="line" smooth="yes"/>
      <point x="164" y="89"/>
      <point x="312" y="-24"/>
    </contour>
    <contour>
      <point x="659" y="0" type="move" name="top"/>
    </contour>
    <contour>
      <point x="1186" y="10" type="move" name="ogonek"/>
    </contour>
  </outline>
</glyph>
<glyph name="v" format="1">
  <advance width="1155"/>
  <unicode hex="0076"/>
  <outline>
    <contour>
      <point x="401" y="0" type="line"/>
      <point x="749" y="0" type="line"/>
      <point x="1131" y="1080" type="line"/>
      <point x="834" y="1080" type="line"/>
      <point x="585" y="239" type="line"/>
      <point x="331" y="1080" type="line"/>
      <point x="24" y="1080" type="line"/>
    </contour>
  </outline>
</glyph>
<glyph name="bar" format="1">
  <advance width="354"/>
  <unicode hex="007C"/>
  <outline>
    <contour>
      <point x="111" y="-108" type="line"/>
      <point x="295" y="-108" type="line"/>
      <point x="295" y="1632" type="line"/>
      <point x="111" y="1632" type="line"/>
    </contour>
  </outline>
</glyph>
<glyph name="asciitilde" format="1">
  <advance width="881"/>
  <unicode hex="007E"/>
  <outline>
    <contour>
      <point x="254" y="1112" type="curve" smooth="yes"/>
      <point x="414" y="1112"/>
      <point x="558" y="1290"/>
      <point x="641" y="1290" type="curve" smooth="yes"/>
      <point x="736" y="1290"/>
      <point x="770" y="1204"/>
      <point x="770" y="1129" type="curve"/>
      <point x="884" y="1129" type="line"/>
      <point x="884" y="1328"/>
      <point x="771" y="1466"/>
      <point x="630" y="1466" type="curve" smooth="yes"/>
      <point x="469" y="1466"/>
      <point x="326" y="1288"/>
      <point x="243" y="1288" type="curve" smooth="yes"/>
      <point x="148" y="1288"/>
      <point x="114" y="1374"/>
      <point x="114" y="1449" type="curve"/>
      <point x="0" y="1449" type="line"/>
      <point x="0" y="1250"/>
      <point x="113" y="1112"/>
    </contour>
  </outline>
</glyph>
<glyph name="logicalnot" format="1">
  <advance width="685"/>
  <unicode hex="00AC"/>
  <outline>
    <contour>
      <point x="434" y="214" type="line"/>
      <point x="565" y="214" type="line"/>
      <point x="565" y="559" type="line"/>
      <point x="113" y="559" type="line"/>
      <point x="113" y="375" type="line"/>
      <point x="434" y="375" type="line"/>
    </contour>
  </outline>
</glyph>
<glyph name="registered" format="1">
  <advance width="1792"/>
  <unicode hex="00AE"/>
  <outline>
    <contour>
      <point x="600" y="319" type="line"/>
      <point x="731" y="319" type="line"/>
      <point x="731" y="652" type="line"/>
      <point x="990" y="652" type="line"/>
      <point x="1170" y="319" type="line"/>
      <point x="1298" y="319" type="line"/>
      <point x="1114" y="666" type="line"/>
      <point x="1206" y="691"/>
      <point x="1266" y="760"/>
      <point x="1266" y="894" type="curve" smooth="yes"/>
      <point x="1266" y="908" type="line"/>
      <point x="1262" y="1082"/>
      <point x="1160" y="1153"/>
      <point x="1003" y="1153" type="curve" smooth="yes"/>
      <point x="600" y="1153" type="line"/>
    </contour>
    <contour>
      <point x="731" y="742" type="line"/>
      <point x="731" y="1062" type="line"/>
      <point x="1007" y="1062" type="line" smooth="yes"/>
      <point x="1125" y="1062"/>
      <point x="1134" y="960"/>
      <point x="1134" y="901" type="curve" smooth="yes"/>
      <point x="1134" y="877" type="line"/>
      <point x="1133" y="814"/>
      <point x="1112" y="742"/>
      <point x="998" y="742" type="curve" smooth="yes"/>
    </contour>
    <contour>
      <point x="898" y="82" type="curve" smooth="yes"/>
      <point x="534" y="82"/>
      <point x="269" y="357"/>
      <point x="269" y="722" type="curve" smooth="yes"/>
      <point x="269" y="1086"/>
      <point x="534" y="1361"/>
      <point x="898" y="1361" type="curve" smooth="yes"/>
      <point x="1264" y="1361"/>
      <point x="1526" y="1086"/>
      <point x="1526" y="722" type="curve" smooth="yes"/>
      <point x="1526" y="357"/>
      <point x="1264" y="82"/>
    </contour>
    <contour>
      <point x="896" y="-14" type="curve" smooth="yes"/>
      <point x="1312" y="-14"/>
      <point x="1632" y="303"/>
      <point x="1632" y="722" type="curve" smooth="yes"/>
      <point x="1632" y="1139"/>
      <point x="1312" y="1456"/>
      <point x="896" y="1456" type="curve" smooth="yes"/>
      <point x="483" y="1456"/>
      <point x="160" y="1139"/>
      <point x="160" y="722" type="curve" smooth="yes"/>
      <point x="160" y="303"/>
      <point x="483" y="-14"/>
    </contour>
  </outline>
</glyph>
<glyph name="Eth" format="1">
  <advance width="1215"/>
  <unicode hex="00D0"/>
  <outline>
    <contour>
      <point x="76" y="698" type="line"/>
      <point x="778" y="698" type="line"/>
      <point x="778" y="849" type="line"/>
      <point x="76" y="849" type="line"/>
    </contour>
    <component base="D"/>
  </outline>
</glyph>
<glyph name="germandbls" format="1">
  <advance width="1185"/>
  <unicode hex="00DF"/>
  <outline>
    <contour>
      <point x="479" y="-29" type="line"/>
      <point x="970" y="-29"/>
      <point x="1128" y="114"/>
      <point x="1128" y="410" type="curve" smooth="yes"/>
      <point x="1128" y="577"/>
      <point x="1042" y="752"/>
      <point x="833" y="808" type="curve"/>
      <point x="990" y="868"/>
      <point x="1044" y="988"/>
      <point x="1044" y="1116" type="curve" smooth="yes"/>
      <point x="1044" y="1367"/>
      <point x="918" y="1518"/>
      <point x="526" y="1518" type="curve" smooth="yes"/>
      <point x="198" y="1518"/>
      <point x="82" y="1335"/>
      <point x="82" y="1124" type="curve" smooth="yes"/>
      <point x="82" y="0" type="line"/>
      <point x="385" y="0" type="line"/>
      <point x="385" y="1128" type="line" smooth="yes"/>
      <point x="385" y="1212"/>
      <point x="390" y="1312"/>
      <point x="558" y="1312" type="curve" smooth="yes"/>
      <point x="710" y="1312"/>
      <point x="718" y="1205"/>
      <point x="718" y="1116" type="curve" smooth="yes"/>
      <point x="718" y="1018"/>
      <point x="666" y="885"/>
      <point x="480" y="884" type="curve"/>
      <point x="480" y="674" type="line"/>
      <point x="717" y="673"/>
      <point x="833" y="580"/>
      <point x="833" y="443" type="curve" smooth="yes"/>
      <point x="833" y="263"/>
      <point x="780" y="178"/>
      <point x="479" y="178" type="curve"/>
    </contour>
  </outline>
</glyph>
<glyph name="dcroat" format="1">
  <advance width="1263"/>
  <unicode hex="0111"/>
  <outline>
    <contour>
      <point x="455" y="1245" type="line"/>
      <point x="1247" y="1245" type="line"/>
      <point x="1247" y="1355" type="line"/>
      <point x="455" y="1355" type="line"/>
    </contour>
    <component base="d"/>
  </outline>
</glyph>
<glyph name="eng" format="1">
  <advance width="1318"/>
  <unicode hex="014B"/>
  <outline>
    <contour>
      <point x="605" y="-386" type="line"/>
      <point x="1096" y="-386"/>
      <point x="1154" y="-202"/>
      <point x="1154" y="179" type="curve" smooth="yes"/>
      <point x="1154" y="179"/>
      <point x="1154.0" y="804.0"/>
      <point x="1154" y="804" type="curve" smooth="yes"/>
      <point x="1154" y="991"/>
      <point x="997" y="1104"/>
      <point x="815" y="1104" type="curve" smooth="yes"/>
      <point x="668" y="1104"/>
      <point x="526" y="1031"/>
      <point x="488" y="944" type="curve"/>
      <point x="488" y="1080" type="line"/>
      <point x="178" y="1080" type="line"/>
      <point x="178" y="0" type="line"/>
      <point x="488" y="0" type="line"/>
      <point x="488" y="760" type="line" smooth="yes"/>
      <point x="488" y="865"/>
      <point x="610" y="894"/>
      <point x="671" y="894" type="curve" smooth="yes"/>
      <point x="735" y="894"/>
      <point x="844" y="879"/>
      <point x="844" y="763" type="curve" smooth="yes"/>
      <point x="844" y="763"/>
      <point x="844.0" y="172.0"/>
      <point x="844" y="172" type="curve" smooth="yes"/>
      <point x="844" y="-140"/>
      <point x="821" y="-153"/>
      <point x="577" y="-175" type="curve"/>
    </contour>
  </outline>
</glyph>
<glyph name="OE" format="1">
  <advance width="1501"/>
  <unicode hex="0152"/>
  <outline>
    <contour>
      <point x="612" y="0" type="curve" smooth="yes"/>
      <point x="1476" y="0" type="line"/>
      <point x="1476" y="207" type="line"/>
      <point x="1156" y="207" type="line"/>
      <point x="1156" y="665" type="line"/>
      <point x="1383" y="665" type="line"/>
      <point x="1383" y="877" type="line"/>
      <point x="1156" y="877" type="line"/>
      <point x="1156" y="1283" type="line"/>
      <point x="1476" y="1283" type="line"/>
      <point x="1476" y="1489" type="line"/>
      <point x="612" y="1489" type="line"/>
      <point x="173" y="1488"/>
      <point x="70" y="1257"/>
      <point x="70" y="976" type="curve" smooth="yes"/>
      <point x="70" y="504" type="line" smooth="yes"/>
      <point x="70" y="212"/>
      <point x="176" y="0"/>
    </contour>
    <contour>
      <point x="612" y="209" type="line" smooth="yes"/>
      <point x="405" y="209"/>
      <point x="371" y="335"/>
      <point x="371" y="429" type="curve" smooth="yes"/>
      <point x="371" y="1052" type="line" smooth="yes"/>
      <point x="371" y="1146"/>
      <point x="406" y="1272"/>
      <point x="612" y="1272" type="curve" smooth="yes"/>
      <point x="855" y="1272" type="line"/>
      <point x="855" y="209" type="line"/>
    </contour>
    <contour>
      <point x="751" y="0" type="move" name="top"/>
    </contour>
  </outline>
</glyph>
<glyph name="florin" format="1">
  <advance width="607"/>
  <unicode hex="0192"/>
  <outline>
    <contour>
      <point x="143" y="-212" type="curve" smooth="yes"/>
      <point x="383" y="-212"/>
      <point x="383" y="-53"/>
      <point x="383" y="106" type="curve" smooth="yes"/>
      <point x="383" y="894" type="line"/>
      <point x="530" y="894" type="line"/>
      <point x="530" y="1080" type="line"/>
      <point x="383" y="1080" type="line"/>
      <point x="383" y="1139" type="line" smooth="yes"/>
      <point x="383" y="1209"/>
      <point x="391" y="1271"/>
      <point x="471" y="1271" type="curve" smooth="yes"/>
      <point x="488" y="1271"/>
      <point x="516" y="1265"/>
      <point x="542" y="1263" type="curve"/>
      <point x="542" y="1420" type="line"/>
      <point x="482" y="1427"/>
      <point x="451" y="1430"/>
      <point x="411" y="1430" type="curve" smooth="yes"/>
      <point x="171" y="1430"/>
      <point x="171" y="1271"/>
      <point x="171" y="1112" type="curve" smooth="yes"/>
      <point x="171" y="1080" type="line"/>
      <point x="54" y="1080" type="line"/>
      <point x="54" y="894" type="line"/>
      <point x="171" y="894" type="line"/>
      <point x="171" y="79" type="line" smooth="yes"/>
      <point x="171" y="9"/>
      <point x="164" y="-53"/>
      <point x="84" y="-53" type="curve" smooth="yes"/>
      <point x="68" y="-53"/>
      <point x="38" y="-49"/>
      <point x="12" y="-45" type="curve"/>
      <point x="12" y="-202" type="line"/>
      <point x="72" y="-209"/>
      <point x="103" y="-212"/>
    </contour>
  </outline>
</glyph>
<glyph name="breve" format="1">
  <advance width="512"/>
  <unicode hex="02D8"/>
  <outline>
    <contour>
      <point x="270" y="1289" type="curve" smooth="yes"/>
      <point x="418" y="1289"/>
      <point x="511" y="1395"/>
      <point x="511" y="1520" type="curve"/>
      <point x="379" y="1520" type="line"/>
      <point x="379" y="1447"/>
      <point x="324" y="1410"/>
      <point x="269" y="1410" type="curve" smooth="yes"/>
      <point x="216" y="1410"/>
      <point x="162" y="1446"/>
      <point x="162" y="1520" type="curve"/>
      <point x="30" y="1520" type="line"/>
      <point x="30" y="1395"/>
      <point x="123" y="1289"/>
    </contour>
    <contour>
      <point x="270.5" y="0" type="move" name="_top"/>
    </contour>
  </outline>
</glyph>
<glyph name="tilde" format="1">
  <advance width="867"/>
  <unicode hex="02DC"/>
  <outline>
    <contour>
      <point x="323" y="1217" type="curve" smooth="yes"/>
      <point x="484" y="1217"/>
      <point x="527" y="1318"/>
      <point x="574" y="1318" type="curve" smooth="yes"/>
      <point x="603" y="1318"/>
      <point x="623" y="1295"/>
      <point x="623" y="1234" type="curve"/>
      <point x="750" y="1234" type="line"/>
      <point x="750" y="1431"/>
      <point x="664" y="1507"/>
      <point x="544" y="1507" type="curve" smooth="yes"/>
      <point x="383" y="1507"/>
      <point x="345" y="1407"/>
      <point x="305" y="1407" type="curve" smooth="yes"/>
      <point x="272" y="1407"/>
      <point x="244" y="1427"/>
      <point x="244" y="1490" type="curve"/>
      <point x="117" y="1490" type="line"/>
      <point x="117" y="1294"/>
      <point x="203" y="1217"/>
    </contour>
    <contour>
      <point x="433.5" y="0" type="move" name="_top"/>
    </contour>
  </outline>
</glyph>
<glyph name="dagger" format="1">
  <advance width="660"/>
  <unicode hex="2020"/>
  <outline>
    <contour>
      <point x="224" y="0" type="line"/>
      <point x="436" y="0" type="line"/>
      <point x="436" y="781" type="line"/>
      <point x="595" y="781" type="line"/>
      <point x="595" y="993" type="line"/>
      <point x="436" y="993" type="line"/>
      <point x="436" y="1271" type="line"/>
      <point x="224" y="1271" type="line"/>
      <point x="224" y="993" type="line"/>
      <point x="65" y="993" type="line"/>
      <point x="65" y="781" type="line"/>
      <point x="224" y="781" type="line"/>
    </contour>
  </outline>
</glyph>
<glyph name="daggerdbl" format="1">
  <advance width="660"/>
  <unicode hex="2021"/>
  <outline>
    <contour>
      <point x="224" y="0" type="line"/>
      <point x="436" y="0" type="line"/>
      <point x="436" y="371" type="line"/>
      <point x="595" y="371" type="line"/>
      <point x="595" y="583" type="line"/>
      <point x="436" y="583" type="line"/>
      <point x="436" y="847" type="line"/>
      <point x="595" y="847" type="line"/>
      <point x="595" y="1059" type="line"/>
      <point x="436" y="1059" type="line"/>
      <point x="436" y="1271" type="line"/>
      <point x="224" y="1271" type="line"/>
      <point x="224" y="1059" type="line"/>
      <point x="65" y="1059" type="line"/>
      <point x="65" y="847" type="line"/>
      <point x="224" y="847" type="line"/>
      <point x="224" y="583" type="line"/>
      <point x="65" y="583" type="line"/>
      <point x="65" y="371" type="line"/>
      <point x="224" y="371" type="line"/>
    </contour>
  </outline>
</glyph>
<glyph name="uni2219" format="1">
  <advance width="479"/>
  <unicode hex="2219"/>
  <outline>
    <contour>
      <point x="121.0" y="1240.0" type="line"/>
      <point x="388.0" y="1240.0" type="line"/>
      <point x="388.0" y="1504.0" type="line"/>
      <point x="121.0" y="1504.0" type="line"/>
    </contour>
    <contour>
      <point x="254.5" y="0.0" type="move" name="_top"/>
    </contour>
  </outline>
</glyph>
